<mxfile host="65bd71144e">
    <diagram id="h1aa0ShlFibolPkug65y" name="Page-1">
        <mxGraphModel dx="1369" dy="1452" grid="1" gridSize="10" guides="1" tooltips="1" connect="1" arrows="1" fold="1" page="1" pageScale="1" pageWidth="1200" pageHeight="1920" math="0" shadow="0">
            <root>
                <mxCell id="0"/>
                <mxCell id="1" parent="0"/>
                <mxCell id="25" value="Actor" style="shape=umlActor;verticalLabelPosition=bottom;verticalAlign=top;html=1;outlineConnect=0;" vertex="1" parent="1">
                    <mxGeometry x="10" y="265" width="30" height="60" as="geometry"/>
                </mxCell>
                <mxCell id="26" value="" style="html=1;rounded=0;" vertex="1" parent="1">
                    <mxGeometry x="50" y="280" width="30" height="30" as="geometry"/>
                </mxCell>
                <mxCell id="27" value="" style="endArrow=none;html=1;rounded=0;align=center;verticalAlign=top;endFill=0;labelBackgroundColor=none;endSize=2;" edge="1" source="26" target="28" parent="1">
                    <mxGeometry relative="1" as="geometry"/>
                </mxCell>
                <mxCell id="28" value="" style="shape=requiredInterface;html=1;fontSize=11;align=center;fillColor=none;points=[];aspect=fixed;resizable=0;verticalAlign=bottom;labelPosition=center;verticalLabelPosition=top;flipH=1;" vertex="1" parent="1">
                    <mxGeometry x="135" y="190" width="5" height="10" as="geometry"/>
                </mxCell>
                <mxCell id="29" value="&#10;&#10;SEJT" style="swimlane;startSize=0;" vertex="1" parent="1">
                    <mxGeometry x="140" y="10" width="800" height="730" as="geometry">
                        <mxRectangle x="240" y="470" width="60" height="50" as="alternateBounds"/>
                    </mxGeometry>
                </mxCell>
                <mxCell id="48" value="" style="edgeStyle=none;html=1;" edge="1" parent="29" source="42" target="47">
                    <mxGeometry relative="1" as="geometry"/>
                </mxCell>
                <mxCell id="42" value="&amp;lt;RangePicker&amp;gt;&lt;br&gt;:[Moment, Moment]" style="shape=process;whiteSpace=wrap;html=1;backgroundOutline=1;" vertex="1" parent="29">
                    <mxGeometry x="300" y="170" width="135" height="30" as="geometry"/>
                </mxCell>
                <mxCell id="43" value="&amp;lt;DatePicker&amp;gt;&lt;br&gt;: Moment" style="shape=process;whiteSpace=wrap;html=1;backgroundOutline=1;" vertex="1" parent="29">
                    <mxGeometry x="165" y="230" width="100" height="40" as="geometry"/>
                </mxCell>
                <mxCell id="44" value="StateStore: isAggregate: Boolean" style="shape=process;whiteSpace=wrap;html=1;backgroundOutline=1;" vertex="1" parent="29">
                    <mxGeometry x="80" y="40" width="120" height="60" as="geometry"/>
                </mxCell>
                <mxCell id="18" value="" style="shape=rhombus;html=1;verticalLabelPosition=bottom;verticalAlignment=top;" vertex="1" parent="29">
                    <mxGeometry x="120" y="150" width="40" height="30" as="geometry"/>
                </mxCell>
                <mxCell id="19" value="" style="edgeStyle=elbowEdgeStyle;html=1;elbow=horizontal;align=right;verticalAlign=bottom;endArrow=none;rounded=0;labelBackgroundColor=none;startArrow=open;startSize=12;" edge="1" source="18" parent="29">
                    <mxGeometry relative="1" as="geometry">
                        <mxPoint x="140" y="100" as="targetPoint"/>
                    </mxGeometry>
                </mxCell>
                <mxCell id="20" value="Series : False" style="edgeStyle=elbowEdgeStyle;html=1;elbow=vertical;verticalAlign=bottom;endArrow=open;rounded=0;labelBackgroundColor=none;endSize=12;exitX=1;exitY=0.5;exitDx=0;exitDy=0;entryX=0;entryY=0.5;entryDx=0;entryDy=0;" edge="1" source="18" parent="29" target="42">
                    <mxGeometry relative="1" as="geometry">
                        <mxPoint x="240" y="160" as="targetPoint"/>
                    </mxGeometry>
                </mxCell>
                <mxCell id="21" value="Single : True" style="edgeStyle=elbowEdgeStyle;html=1;elbow=vertical;verticalAlign=bottom;endArrow=open;rounded=0;labelBackgroundColor=none;endSize=12;exitX=0.5;exitY=1;exitDx=0;exitDy=0;entryX=0.5;entryY=0;entryDx=0;entryDy=0;" edge="1" source="18" parent="29" target="43">
                    <mxGeometry relative="1" as="geometry">
                        <mxPoint x="40" y="150" as="targetPoint"/>
                    </mxGeometry>
                </mxCell>
                <mxCell id="47" value="* Initialize default state on switch,&lt;br&gt;and on component mount.&amp;nbsp;" style="text;html=1;align=center;verticalAlign=middle;resizable=0;points=[];autosize=1;strokeColor=none;fillColor=none;" vertex="1" parent="29">
                    <mxGeometry x="230" y="55" width="190" height="30" as="geometry"/>
                </mxCell>
                <mxCell id="51" value="Boolean" style="endArrow=classic;html=1;exitX=0;exitY=0.25;exitDx=0;exitDy=0;entryX=0;entryY=0.5;entryDx=0;entryDy=0;" edge="1" parent="29" source="29" target="44">
                    <mxGeometry relative="1" as="geometry">
                        <mxPoint x="225" y="230" as="sourcePoint"/>
                        <mxPoint x="325" y="230" as="targetPoint"/>
                        <Array as="points">
                            <mxPoint x="45" y="180"/>
                        </Array>
                    </mxGeometry>
                </mxCell>
                <mxCell id="53" value="String" style="endArrow=classic;html=1;entryX=0.5;entryY=0;entryDx=0;entryDy=0;exitX=0;exitY=0.25;exitDx=0;exitDy=0;" edge="1" parent="29" source="29" target="56">
                    <mxGeometry width="50" height="50" relative="1" as="geometry">
                        <mxPoint y="280" as="sourcePoint"/>
                        <mxPoint x="80" y="335" as="targetPoint"/>
                    </mxGeometry>
                </mxCell>
                <mxCell id="55" value="Sub-Catagory?&lt;br&gt;: String" style="shape=process;whiteSpace=wrap;html=1;backgroundOutline=1;" vertex="1" parent="29">
                    <mxGeometry x="20" y="369" width="120" height="40" as="geometry"/>
                </mxCell>
                <mxCell id="56" value="Catagory&amp;nbsp;&lt;br&gt;: String" style="shape=process;whiteSpace=wrap;html=1;backgroundOutline=1;" vertex="1" parent="29">
                    <mxGeometry x="20" y="299.5" width="100" height="40" as="geometry"/>
                </mxCell>
                <mxCell id="58" value="" style="endArrow=classic;html=1;exitX=0.5;exitY=1;exitDx=0;exitDy=0;entryX=0.5;entryY=0;entryDx=0;entryDy=0;" edge="1" parent="29" source="56" target="55">
                    <mxGeometry width="50" height="50" relative="1" as="geometry">
                        <mxPoint x="250" y="430" as="sourcePoint"/>
                        <mxPoint x="300" y="380" as="targetPoint"/>
                    </mxGeometry>
                </mxCell>
                <mxCell id="59" value="Single Type&lt;br&gt;[{ Data }]&lt;br&gt;identifier: string,&lt;br&gt;value: number,&lt;br&gt;catagory: string," style="rounded=0;whiteSpace=wrap;html=1;" vertex="1" parent="29">
                    <mxGeometry x="380" y="430" width="120" height="85" as="geometry"/>
                </mxCell>
                <mxCell id="62" value="Series Type&lt;br&gt;[{ Data }]&lt;br&gt;identifier: string,&lt;br&gt;value: number,&lt;br&gt;catagory: string,&lt;br&gt;date: string," style="rounded=0;whiteSpace=wrap;html=1;" vertex="1" parent="29">
                    <mxGeometry x="380" y="575.5" width="120" height="99" as="geometry"/>
                </mxCell>
                <mxCell id="2" value="LineChart" style="swimlane;" vertex="1" parent="29">
                    <mxGeometry x="20" y="540" width="330" height="170" as="geometry"/>
                </mxCell>
                <mxCell id="3" value="API&lt;br&gt;------------------------------------&lt;br&gt;config: {&lt;br&gt;data: any --------------&amp;gt; Single or Series Payload&lt;br&gt;xField: string ----------&amp;gt; Single: Identifier, Series: Date&lt;br&gt;yField: string ----------&amp;gt; Single: Value, Series: Value&lt;br&gt;seriesField: string ----&amp;gt; Single: Null, Series: Catagory" style="rounded=0;whiteSpace=wrap;html=1;align=center;" vertex="1" parent="2">
                    <mxGeometry x="20" y="40" width="290" height="110" as="geometry"/>
                </mxCell>
                <mxCell id="73" value="Snapshots Object" style="strokeWidth=2;html=1;shape=mxgraph.flowchart.database;whiteSpace=wrap;" vertex="1" parent="29">
                    <mxGeometry x="545" y="20" width="120" height="110" as="geometry"/>
                </mxCell>
                <mxCell id="79" value="StateStore :&lt;br&gt;chart {&lt;br&gt;data: any&lt;br&gt;xField: string&lt;br&gt;yField: string&lt;br&gt;seriesField: string&lt;br&gt;isAggregate: string" style="ellipse;whiteSpace=wrap;html=1;fontSize=12;" vertex="1" parent="29">
                    <mxGeometry x="520" y="450" width="200" height="200" as="geometry"/>
                </mxCell>
                <mxCell id="80" value="Snapshots API&lt;br&gt;Moment[]-&amp;gt;disabledDates()-&amp;gt;Moment[]&lt;br&gt;firstDate()-&amp;gt;Moment[]&lt;br&gt;dateUpdate()-&amp;gt;Single Type&lt;br&gt;catagoryUpdate()-&amp;gt;Single Type&lt;br&gt;tableUpdate()-&amp;gt;Single Type" style="rhombus;whiteSpace=wrap;html=1;fontSize=12;" vertex="1" parent="29">
                    <mxGeometry x="420" y="170" width="370" height="230" as="geometry"/>
                </mxCell>
                <mxCell id="83" value="" style="endArrow=classic;html=1;fontSize=12;exitX=0.5;exitY=1;exitDx=0;exitDy=0;entryX=0;entryY=0.5;entryDx=0;entryDy=0;" edge="1" parent="29" source="43" target="80">
                    <mxGeometry width="50" height="50" relative="1" as="geometry">
                        <mxPoint x="280" y="290" as="sourcePoint"/>
                        <mxPoint x="330" y="240" as="targetPoint"/>
                    </mxGeometry>
                </mxCell>
                <mxCell id="84" value="" style="endArrow=classic;html=1;fontSize=12;exitX=0.5;exitY=1;exitDx=0;exitDy=0;entryX=0;entryY=0.5;entryDx=0;entryDy=0;" edge="1" parent="29" source="42" target="80">
                    <mxGeometry width="50" height="50" relative="1" as="geometry">
                        <mxPoint x="280" y="290" as="sourcePoint"/>
                        <mxPoint x="330" y="240" as="targetPoint"/>
                    </mxGeometry>
                </mxCell>
                <mxCell id="85" value="" style="endArrow=classic;html=1;fontSize=12;exitX=1;exitY=0.5;exitDx=0;exitDy=0;entryX=0;entryY=0.5;entryDx=0;entryDy=0;" edge="1" parent="29" source="56" target="80">
                    <mxGeometry width="50" height="50" relative="1" as="geometry">
                        <mxPoint x="280" y="290" as="sourcePoint"/>
                        <mxPoint x="330" y="240" as="targetPoint"/>
                    </mxGeometry>
                </mxCell>
                <mxCell id="86" value="" style="endArrow=classic;html=1;fontSize=12;exitX=1;exitY=0.5;exitDx=0;exitDy=0;entryX=0;entryY=0.5;entryDx=0;entryDy=0;" edge="1" parent="29" source="55" target="80">
                    <mxGeometry width="50" height="50" relative="1" as="geometry">
                        <mxPoint x="280" y="290" as="sourcePoint"/>
                        <mxPoint x="330" y="240" as="targetPoint"/>
                    </mxGeometry>
                </mxCell>
                <mxCell id="87" value="" style="endArrow=classic;startArrow=classic;html=1;fontSize=12;entryX=0.5;entryY=1;entryDx=0;entryDy=0;exitX=0.5;exitY=0;exitDx=0;exitDy=0;" edge="1" parent="29" source="79" target="80">
                    <mxGeometry width="50" height="50" relative="1" as="geometry">
                        <mxPoint x="280" y="290" as="sourcePoint"/>
                        <mxPoint x="330" y="240" as="targetPoint"/>
                        <Array as="points"/>
                    </mxGeometry>
                </mxCell>
                <mxCell id="88" value="" style="endArrow=classic;html=1;fontSize=12;exitX=0;exitY=0.5;exitDx=0;exitDy=0;entryX=1;entryY=0.5;entryDx=0;entryDy=0;" edge="1" parent="29" source="79" target="59">
                    <mxGeometry width="50" height="50" relative="1" as="geometry">
                        <mxPoint x="280" y="290" as="sourcePoint"/>
                        <mxPoint x="330" y="240" as="targetPoint"/>
                    </mxGeometry>
                </mxCell>
                <mxCell id="89" value="" style="endArrow=classic;html=1;fontSize=12;exitX=0;exitY=0.5;exitDx=0;exitDy=0;entryX=1;entryY=0.5;entryDx=0;entryDy=0;" edge="1" parent="29" source="79" target="62">
                    <mxGeometry width="50" height="50" relative="1" as="geometry">
                        <mxPoint x="280" y="290" as="sourcePoint"/>
                        <mxPoint x="330" y="240" as="targetPoint"/>
                    </mxGeometry>
                </mxCell>
                <mxCell id="90" value="" style="endArrow=classic;html=1;fontSize=12;exitX=0;exitY=0.5;exitDx=0;exitDy=0;entryX=0.5;entryY=0;entryDx=0;entryDy=0;" edge="1" parent="29" source="59" target="2">
                    <mxGeometry width="50" height="50" relative="1" as="geometry">
                        <mxPoint x="280" y="290" as="sourcePoint"/>
                        <mxPoint x="330" y="240" as="targetPoint"/>
                    </mxGeometry>
                </mxCell>
                <mxCell id="92" value="" style="endArrow=classic;html=1;fontSize=12;exitX=0.5;exitY=1;exitDx=0;exitDy=0;exitPerimeter=0;" edge="1" parent="29" source="73" target="80">
                    <mxGeometry width="50" height="50" relative="1" as="geometry">
                        <mxPoint x="280" y="290" as="sourcePoint"/>
                        <mxPoint x="330" y="240" as="targetPoint"/>
                    </mxGeometry>
                </mxCell>
                <mxCell id="75" value="Input" style="text;html=1;align=center;verticalAlign=middle;resizable=0;points=[];autosize=1;strokeColor=none;fillColor=none;" vertex="1" parent="1">
                    <mxGeometry x="90" y="170" width="40" height="20" as="geometry"/>
                </mxCell>
                <mxCell id="91" value="" style="endArrow=classic;html=1;fontSize=12;exitX=0;exitY=0.5;exitDx=0;exitDy=0;" edge="1" parent="1" source="62">
                    <mxGeometry width="50" height="50" relative="1" as="geometry">
                        <mxPoint x="420" y="300" as="sourcePoint"/>
                        <mxPoint x="490" y="640" as="targetPoint"/>
                    </mxGeometry>
                </mxCell>
            </root>
        </mxGraphModel>
    </diagram>
</mxfile>